<svg width="111" height="56" viewBox="0 0 111 56" fill="none" xmlns="http://www.w3.org/2000/svg">
<path d="M61.9545 38.2233C60.8499 38.2233 59.9545 37.3279 59.9545 36.2233V3.2959C59.9545 2.19133 60.8499 1.2959 61.9545 1.2959H105.319C106.424 1.2959 107.319 2.19133 107.319 3.2959V8.86968C107.319 9.97425 106.424 10.8697 105.319 10.8697H72.3201C71.2155 10.8697 70.3201 11.7651 70.3201 12.8697V13.1887C70.3201 14.2932 71.2155 15.1887 72.3201 15.1887H104.456C105.56 15.1887 106.456 16.0841 106.456 17.1887V22.2586C106.456 23.3631 105.56 24.2586 104.456 24.2586H72.3201C71.2155 24.2586 70.3201 25.154 70.3201 26.2586V26.6495C70.3201 27.7541 71.2155 28.6495 72.3201 28.6495H105.895C107 28.6495 107.895 29.545 107.895 30.6495V36.2233C107.895 37.3279 107 38.2233 105.895 38.2233H61.9545ZM110.199 51.3398C110.199 52.4444 109.303 53.3398 108.199 53.3398H59.0032C57.8986 53.3398 57.0032 52.4444 57.0032 51.3398V45.3341C57.0032 44.2296 57.8986 43.3341 59.0032 43.3341H108.199C109.303 43.3341 110.199 44.2296 110.199 45.3341V51.3398Z" fill="#4876EE"/>
<path d="M50.9642 53.2832C50.9642 54.3877 50.0687 55.2832 48.9642 55.2832H42.5986C41.494 55.2832 40.5986 54.3877 40.5986 53.2832V2C40.5986 0.895428 41.494 0 42.5986 0H48.9642C50.0687 0 50.9642 0.895431 50.9642 2V53.2832ZM18.2838 29.8011C15.1645 29.8011 12.3811 29.1772 9.93369 27.9295C7.48626 26.6818 5.56671 24.9542 4.17503 22.7467C2.83134 20.4912 2.1595 17.9238 2.1595 15.0445C2.1595 12.2132 2.83134 9.69375 4.17503 7.48626C5.56671 5.23079 7.48626 3.47919 9.93369 2.23148C12.3811 0.983772 15.1645 0.359917 18.2838 0.359917C21.355 0.359917 24.0904 0.983772 26.4898 2.23148C28.9373 3.47919 30.8328 5.23079 32.1765 7.48626C33.5682 9.69375 34.264 12.2132 34.264 15.0445C34.264 17.9238 33.5682 20.4912 32.1765 22.7467C30.8328 24.9542 28.9373 26.6818 26.4898 27.9295C24.0904 29.1772 21.355 29.8011 18.2838 29.8011ZM18.2838 9.14188C16.4602 9.14188 14.9725 9.71774 13.8208 10.8695C12.6691 11.9732 12.0932 13.3649 12.0932 15.0445C12.0932 16.7721 12.6691 18.2118 13.8208 19.3635C14.9725 20.4672 16.4602 21.0191 18.2838 21.0191C20.1073 21.0191 21.571 20.4672 22.6747 19.3635C23.8265 18.2118 24.4023 16.7721 24.4023 15.0445C24.4023 13.3649 23.8265 11.9732 22.6747 10.8695C21.571 9.71774 20.1073 9.14188 18.2838 9.14188ZM23.9704 32.8244C28.3335 32.8244 31.8855 32.4854 34.6264 31.8075C36.0415 31.4575 37.5753 32.4697 37.5753 33.9275V39.3879C37.5753 40.1696 37.123 40.8893 36.3855 41.148C33.4626 42.1734 29.2762 42.6861 23.8265 42.6861V42.6861C23.5482 42.6861 23.3226 42.9117 23.3226 43.19V53.2832C23.3226 54.3877 22.4271 55.2832 21.3226 55.2832H14.957C13.8524 55.2832 12.957 54.3877 12.957 53.2832V44.6861C12.957 43.5815 12.0616 42.6861 10.957 42.6861H2C0.895429 42.6861 0 41.7907 0 40.6861V34.8244C0 33.7198 0.895431 32.8244 2 32.8244H23.9704Z" fill="#4876EE"/>
</svg>
