<svg width="160" height="160" viewBox="0 0 160 160" fill="none" xmlns="http://www.w3.org/2000/svg">
<path d="M105.306 44.2513C91.1694 31.1965 69.3403 31.0668 55.0452 43.9641L55.0079 43.9919C42.3519 55.416 39.437 73.5296 46.7755 88.0113C47.6881 89.8088 49.1968 91.2912 51.1059 91.9583C53.5365 92.8107 56.47 92.4494 59.6736 89.2436L89.251 59.6224C89.8097 59.0665 90.4709 58.6403 91.1601 58.3901H91.933C93.9912 58.3901 95.2577 60.0208 94.5034 61.9202C94.2519 62.5503 93.8515 63.1525 93.3393 63.6621L89.6794 67.3312C88.953 68.0538 88.4687 68.9618 88.3383 69.8328L88.1893 90.1887C88.031 91.2449 87.4443 92.3289 86.5782 93.1999L85.9542 93.8207C85.4327 94.3395 84.697 94.4136 84.399 93.9689L77.9918 80.8678C77.6007 80.2841 76.6415 80.3767 75.9617 81.0623L63.7619 93.274C63.7619 93.274 63.6781 93.3667 63.6316 93.4037C59.6084 97.5268 59.6178 104.105 63.5012 108.376L78.4295 124.804C79.4353 125.906 81.1768 125.897 82.164 124.785L107.876 95.822C121.231 80.7844 120.086 57.8898 105.306 44.242V44.2513ZM79.7892 65.5707L73.0654 72.3066C72.6091 72.7606 71.9851 72.9274 71.566 72.6958L61.0799 68.0909C60.5583 67.8037 60.6049 66.9883 61.1823 66.4139L62.1974 65.3947C62.9797 64.6072 63.9761 64.1254 64.9074 64.079L79.5936 64.6627C80.0593 64.635 80.171 65.1816 79.7799 65.5707H79.7892Z" fill="#4876EE"/>
</svg>
