<svg width="72" height="89" viewBox="0 0 72 89" fill="none" xmlns="http://www.w3.org/2000/svg">
<path d="M60.4981 9.63276C46.8127 -3.10015 25.6807 -3.22667 11.8421 9.35262L11.806 9.37973C-0.445891 20.5222 -3.2677 38.1892 3.83642 52.3138C4.71992 54.0669 6.18041 55.5128 8.02856 56.1635C10.3816 56.9949 13.2214 56.6424 16.3227 53.5157L44.9556 24.6249C45.4965 24.0827 46.1366 23.667 46.8037 23.423H47.552C49.5444 23.423 50.7705 25.0135 50.0402 26.866C49.7968 27.4805 49.4092 28.0679 48.9133 28.5649L45.3703 32.1435C44.6671 32.8484 44.1983 33.734 44.072 34.5835L43.9278 54.4374C43.7745 55.4676 43.2066 56.5249 42.3681 57.3744L41.7641 57.9799C41.2593 58.4859 40.547 58.5582 40.2585 58.1245L34.056 45.3464C33.6773 44.777 32.7487 44.8674 32.0906 45.5361L20.2805 57.4467C20.2805 57.4467 20.1993 57.5371 20.1542 57.5732C16.2596 61.5946 16.2686 68.0108 20.028 72.1768L34.4797 88.1991C35.4533 89.2745 37.1392 89.2654 38.0949 88.181L62.9863 59.9318C75.9144 45.265 74.8055 22.935 60.4981 9.62372V9.63276ZM35.7959 30.4265L29.2868 36.9963C28.8451 37.4391 28.241 37.6018 27.8354 37.3759L17.684 32.8846C17.1792 32.6044 17.2242 31.8092 17.7832 31.2489L18.7659 30.2548C19.5232 29.4867 20.4878 29.0168 21.3893 28.9716L35.6066 29.5409C36.0574 29.5138 36.1656 30.047 35.7869 30.4265H35.7959Z" fill="#4876EE"/>
</svg>
