<svg width="24" height="24" viewBox="0 0 24 24" fill="none" xmlns="http://www.w3.org/2000/svg">
<rect width="24" height="24" rx="4" fill="white"/>
<path d="M15.7959 6.63769C13.6754 4.67947 10.401 4.66001 8.25678 6.59461L8.25119 6.59878C6.35279 8.3124 5.91555 11.0294 7.01632 13.2017C7.15322 13.4713 7.37952 13.6937 7.66588 13.7937C8.03048 13.9216 8.47051 13.8674 8.95104 13.3865L13.3876 8.94336C13.4715 8.85998 13.5706 8.79604 13.674 8.75852H13.79C14.0987 8.75852 14.2887 9.00312 14.1755 9.28803C14.1378 9.38254 14.0777 9.47288 14.0009 9.54931L13.4519 10.0997C13.3429 10.2081 13.2703 10.3443 13.2507 10.4749L13.2284 13.5283C13.2046 13.6867 13.1166 13.8493 12.9867 13.98L12.8931 14.0731C12.8149 14.1509 12.7046 14.162 12.6599 14.0953L11.6988 12.1302C11.6401 12.0426 11.4962 12.0565 11.3942 12.1593L9.56429 13.9911C9.56429 13.9911 9.55172 14.005 9.54473 14.0106C8.94127 14.629 8.94266 15.6158 9.52518 16.2565L11.7644 18.7206C11.9153 18.886 12.1765 18.8846 12.3246 18.7178L16.1815 14.3733C18.1846 12.1177 18.0128 8.68347 15.7959 6.6363V6.63769ZM11.9684 9.83561L10.9598 10.846C10.8914 10.9141 10.7978 10.9391 10.7349 10.9044L9.16198 10.2136C9.08375 10.1706 9.09074 10.0483 9.17734 9.96208L9.32961 9.80921C9.44695 9.69107 9.59642 9.6188 9.73611 9.61185L11.939 9.69941C12.0089 9.69524 12.0257 9.77724 11.967 9.83561H11.9684Z" fill="#4876EE"/>
</svg>
