<svg width="40" height="40" viewBox="0 0 40 40" fill="none" xmlns="http://www.w3.org/2000/svg">
<path d="M26.3265 11.0628C22.7923 7.79912 17.3351 7.76669 13.7613 10.991L13.752 10.998C10.588 13.854 9.85925 18.3824 11.6939 22.0028C11.922 22.4522 12.2992 22.8228 12.7765 22.9896C13.3841 23.2027 14.1175 23.1123 14.9184 22.3109L22.3127 14.9056C22.4524 14.7666 22.6177 14.6601 22.79 14.5975H22.9833C23.4978 14.5975 23.8144 15.0052 23.6258 15.4801C23.563 15.6376 23.4629 15.7881 23.3348 15.9155L22.4198 16.8328C22.2382 17.0135 22.1172 17.2405 22.0846 17.4582L22.0473 22.5472C22.0077 22.8112 21.8611 23.0822 21.6446 23.3L21.4886 23.4552C21.3582 23.5849 21.1743 23.6034 21.0998 23.4922L19.498 20.2169C19.4002 20.071 19.1604 20.0942 18.9904 20.2656L15.9405 23.3185C15.9405 23.3185 15.9195 23.3417 15.9079 23.3509C14.9021 24.3817 14.9044 26.0263 15.8753 27.0941L19.6074 31.201C19.8588 31.4766 20.2942 31.4743 20.541 31.1963L26.9691 23.9555C30.3077 20.1961 30.0214 14.4725 26.3265 11.0605V11.0628ZM19.9473 16.3927L18.2663 18.0767C18.1523 18.1902 17.9963 18.2318 17.8915 18.1739L15.27 17.0227C15.1396 16.9509 15.1512 16.7471 15.2956 16.6035L15.5493 16.3487C15.7449 16.1518 15.994 16.0313 16.2269 16.0198L19.8984 16.1657C20.0148 16.1587 20.0428 16.2954 19.945 16.3927H19.9473Z" fill="#4876EE"/>
</svg>
