<svg width="32" height="32" viewBox="0 0 32 32" fill="none" xmlns="http://www.w3.org/2000/svg">
<rect width="32" height="32" rx="4" fill="white"/>
<path d="M21.0612 8.85026C18.2339 6.23929 13.8681 6.21335 11.009 8.79281L11.0016 8.79837C8.47038 11.0832 7.8874 14.7059 9.35509 17.6023C9.53762 17.9618 9.83936 18.2582 10.2212 18.3917C10.7073 18.5621 11.294 18.4899 11.9347 17.8487L17.8502 11.9245C17.9619 11.8133 18.0942 11.7281 18.232 11.678H18.3866C18.7982 11.678 19.0515 12.0042 18.9007 12.384C18.8504 12.5101 18.7703 12.6305 18.6679 12.7324L17.9359 13.4662C17.7906 13.6108 17.6937 13.7924 17.6677 13.9666L17.6379 18.0377C17.6062 18.249 17.4889 18.4658 17.3156 18.64L17.1908 18.7641C17.0865 18.8679 16.9394 18.8827 16.8798 18.7938L15.5984 16.1736C15.5201 16.0568 15.3283 16.0753 15.1923 16.2125L12.7524 18.6548C12.7524 18.6548 12.7356 18.6733 12.7263 18.6807C11.9217 19.5054 11.9236 20.821 12.7002 21.6753L15.6859 24.9608C15.8871 25.1813 16.2354 25.1794 16.4328 24.9571L21.5753 19.1644C24.2462 16.1569 24.0171 11.578 21.0612 8.8484V8.85026ZM15.9578 13.1141L14.6131 14.4613C14.5218 14.5521 14.397 14.5855 14.3132 14.5392L12.216 13.6182C12.1117 13.5607 12.121 13.3977 12.2365 13.2828L12.4395 13.0789C12.5959 12.9214 12.7952 12.8251 12.9815 12.8158L15.9187 12.9325C16.0119 12.927 16.0342 13.0363 15.956 13.1141H15.9578Z" fill="#4876EE"/>
</svg>
