<svg width="76" height="76" viewBox="0 0 76 76" fill="none" xmlns="http://www.w3.org/2000/svg">
<path d="M50.0204 21.0194C43.3055 14.8183 32.9366 14.7567 26.1465 20.8829L26.1288 20.8961C20.1172 26.3226 18.7326 34.9266 22.2183 41.8054C22.6519 42.6592 23.3685 43.3633 24.2753 43.6802C25.4298 44.0851 26.8233 43.9135 28.345 42.3907L42.3942 28.3206C42.6596 28.0566 42.9737 27.8541 43.301 27.7353H43.6682C44.6458 27.7353 45.2474 28.5099 44.8891 29.4121C44.7697 29.7114 44.5795 29.9974 44.3362 30.2395L42.5977 31.9823C42.2527 32.3256 42.0226 32.7569 41.9607 33.1706L41.8899 42.8396C41.8147 43.3413 41.536 43.8562 41.1246 44.2699L40.8283 44.5648C40.5805 44.8113 40.2311 44.8465 40.0895 44.6352L37.0461 38.4122C36.8603 38.1349 36.4047 38.1789 36.0818 38.5046L30.2869 44.3052C30.2869 44.3052 30.2471 44.3492 30.225 44.3668C28.314 46.3252 28.3184 49.4499 30.1631 51.4788L37.254 59.2818C37.7318 59.8055 38.559 59.8011 39.0279 59.273L51.2413 45.5154C57.5847 38.3726 57.0406 27.4977 50.0204 21.015V21.0194ZM37.8999 31.1461L34.7061 34.3456C34.4893 34.5613 34.1929 34.6405 33.9939 34.5305L29.0129 32.3432C28.7652 32.2067 28.7873 31.8195 29.0616 31.5466L29.5438 31.0625C29.9153 30.6884 30.3887 30.4595 30.831 30.4375L37.807 30.7148C38.0282 30.7016 38.0812 30.9613 37.8954 31.1461H37.8999Z" fill="#4876EE"/>
</svg>
