<svg width="343" height="308" viewBox="0 0 343 308" fill="none" xmlns="http://www.w3.org/2000/svg">
<g clip-path="url(#clip0_3266_8754)">
<rect width="343" height="308" fill="white"/>
<path d="M100 113C100 104.163 107.163 97 116 97H226C234.837 97 242 104.163 242 113V309H100V113Z" fill="#525960"/>
<path d="M111 120C111 113.373 116.373 108 123 108H219C225.627 108 231 113.373 231 120V309H111V120Z" fill="white"/>
<path d="M111 120C111 113.373 116.373 108 123 108H219C225.627 108 231 113.373 231 120V200H111V120Z" fill="#F2F2F2"/>
<rect x="120" y="232" width="102" height="34" rx="4" fill="#F2F2F2"/>
<rect x="120" y="209" width="25" height="14" rx="7" fill="#E0E0E0"/>
<rect x="150" y="209" width="25" height="14" rx="7" fill="#F2F2F2"/>
<rect x="120" y="277" width="102" height="34" rx="4" fill="#F2F2F2"/>
<path d="M111 120C111 113.373 116.373 108 123 108H219C225.627 108 231 113.373 231 120V128H111V120Z" fill="white"/>
<g filter="url(#filter0_dd_3266_8754)">
<rect x="206" y="188" width="106" height="62" rx="12" fill="white"/>
<path d="M249.718 212.219V217.672H251.734V219.312H249.718V226.406H247.718V212.219H249.718ZM245.922 213.672C245.906 217.922 244.25 221.609 239.468 223.953L238.343 222.422C241.711 220.734 243.515 218.469 243.89 215.297H239.156V213.672H245.922ZM263.914 212.219V226.469H261.898V212.219H263.914ZM256.195 213.219C258.336 213.219 259.93 215.188 259.93 218.281C259.93 221.406 258.336 223.359 256.195 223.359C254.008 223.359 252.414 221.406 252.43 218.281C252.414 215.188 254.008 213.219 256.195 213.219ZM256.195 215.016C255.086 215.016 254.352 216.172 254.352 218.281C254.352 220.406 255.086 221.547 256.195 221.547C257.273 221.547 258.008 220.406 258.008 218.281C258.008 216.172 257.273 215.016 256.195 215.016ZM277.11 218.797V220.391H267.047V213.406H277V215.016H269.016V218.797H277.11ZM278.532 223.062V224.703H265.516V223.062H278.532Z" fill="#4876EE"/>
</g>
<path d="M218 260L235 247H218V260Z" fill="white"/>
<g filter="url(#filter1_dd_3266_8754)">
<rect x="28" y="129" width="106" height="62" rx="12" fill="#4876EE"/>
<path d="M76.1366 166H73.6053L77.5272 154.688H80.5428L84.4491 166H81.9334L81.0897 163.391H76.9959L76.1366 166ZM77.5897 161.562H80.4959L79.0741 157.234H78.9959L77.5897 161.562ZM87.7541 154.688V166H85.4103V154.688H87.7541Z" fill="white"/>
</g>
<path d="M118 202L101 189H118V202Z" fill="#4876EE"/>
<path opacity="0.5" d="M317.599 166.99L312.61 169.811L309.79 164.822C309.348 164.043 308.379 163.769 307.601 164.211C306.822 164.653 306.548 165.622 306.99 166.401L309.811 171.39L304.822 174.21C304.043 174.652 303.769 175.621 304.211 176.399C304.653 177.178 305.622 177.452 306.401 177.01L311.39 174.189L314.21 179.178C314.652 179.957 315.621 180.231 316.399 179.789C317.178 179.347 317.452 178.378 317.01 177.599L314.189 172.61L319.178 169.79C319.957 169.348 320.231 168.379 319.789 167.601C319.347 166.822 318.378 166.548 317.599 166.99Z" fill="#4876EE"/>
<path opacity="0.5" d="M45.5575 104.281L42.5861 102.921L43.9469 99.9491C44.1588 99.4844 43.9614 98.9456 43.4967 98.7337C43.032 98.5219 42.4933 98.7193 42.2814 99.184L40.9205 102.155L37.9491 100.795C37.4844 100.583 36.9456 100.78 36.7337 101.245C36.5218 101.709 36.7193 102.248 37.184 102.46L40.1554 103.821L38.7945 106.792C38.5826 107.257 38.7801 107.796 39.2448 108.008C39.7094 108.22 40.2482 108.022 40.4601 107.558L41.821 104.586L44.7924 105.947C45.2571 106.159 45.7959 105.961 46.0077 105.497C46.2196 105.032 46.0222 104.493 45.5575 104.281Z" fill="#4876EE"/>
<path opacity="0.5" d="M213.727 71.3776L210.159 72.1573L209.379 68.589C209.256 68.0316 208.718 67.6829 208.161 67.8057C207.603 67.9284 207.255 68.4666 207.378 69.024L208.157 72.5924L204.589 73.3721C204.032 73.4949 203.683 74.0331 203.806 74.5905C203.928 75.1479 204.467 75.4965 205.024 75.3738L208.592 74.5941L209.372 78.1624C209.495 78.7198 210.033 79.0685 210.59 78.9457C211.148 78.823 211.496 78.2848 211.374 77.7274L210.594 74.159L214.162 73.3793C214.72 73.2565 215.068 72.7183 214.946 72.1609C214.823 71.6035 214.285 71.2549 213.727 71.3776Z" fill="#4876EE"/>
<path opacity="0.5" d="M154.261 82.3967L152.579 82.0478L152.928 80.366C152.982 80.1031 152.818 79.8502 152.555 79.7961C152.292 79.742 152.039 79.9063 151.985 80.1692L151.636 81.851L149.955 81.5021C149.692 81.448 149.439 81.6123 149.385 81.8752C149.331 82.138 149.495 82.3909 149.758 82.445L151.44 82.794L151.091 84.4757C151.037 84.7386 151.201 84.9915 151.464 85.0456C151.727 85.0997 151.98 84.9354 152.034 84.6725L152.383 82.9907L154.064 83.3397C154.327 83.3938 154.58 83.2295 154.634 82.9666C154.688 82.7037 154.524 82.4508 154.261 82.3967Z" fill="#4876EE"/>
<path opacity="0.3" d="M23.5 122C25.9853 122 28 119.985 28 117.5C28 115.015 25.9853 113 23.5 113C21.0147 113 19 115.015 19 117.5C19 119.985 21.0147 122 23.5 122Z" stroke="#4876EE" stroke-miterlimit="10"/>
<path opacity="0.4" d="M264.915 153.664L262.182 162.101C261.279 164.886 263.88 167.545 266.866 166.903L275.909 164.932C278.896 164.278 280.016 160.805 277.932 158.673L271.623 152.209C269.539 150.077 265.818 150.891 264.915 153.664Z" stroke="#4876EE" stroke-miterlimit="10"/>
<path opacity="0.3" d="M187.5 69C191.642 69 195 65.6421 195 61.5C195 57.3579 191.642 54 187.5 54C183.358 54 180 57.3579 180 61.5C180 65.6421 183.358 69 187.5 69Z" stroke="#4876EE" stroke-miterlimit="10"/>
</g>
<defs>
<filter id="filter0_dd_3266_8754" x="160" y="142" width="206" height="162" filterUnits="userSpaceOnUse" color-interpolation-filters="sRGB">
<feFlood flood-opacity="0" result="BackgroundImageFix"/>
<feColorMatrix in="SourceAlpha" type="matrix" values="0 0 0 0 0 0 0 0 0 0 0 0 0 0 0 0 0 0 127 0" result="hardAlpha"/>
<feOffset dx="4" dy="4"/>
<feGaussianBlur stdDeviation="25"/>
<feComposite in2="hardAlpha" operator="out"/>
<feColorMatrix type="matrix" values="0 0 0 0 0.733333 0 0 0 0 0.74902 0 0 0 0 0.764706 0 0 0 0.3 0"/>
<feBlend mode="normal" in2="BackgroundImageFix" result="effect1_dropShadow_3266_8754"/>
<feColorMatrix in="SourceAlpha" type="matrix" values="0 0 0 0 0 0 0 0 0 0 0 0 0 0 0 0 0 0 127 0" result="hardAlpha"/>
<feOffset/>
<feGaussianBlur stdDeviation="2"/>
<feComposite in2="hardAlpha" operator="out"/>
<feColorMatrix type="matrix" values="0 0 0 0 0.733333 0 0 0 0 0.74902 0 0 0 0 0.764706 0 0 0 0.2 0"/>
<feBlend mode="normal" in2="effect1_dropShadow_3266_8754" result="effect2_dropShadow_3266_8754"/>
<feBlend mode="normal" in="SourceGraphic" in2="effect2_dropShadow_3266_8754" result="shape"/>
</filter>
<filter id="filter1_dd_3266_8754" x="-18" y="83" width="206" height="162" filterUnits="userSpaceOnUse" color-interpolation-filters="sRGB">
<feFlood flood-opacity="0" result="BackgroundImageFix"/>
<feColorMatrix in="SourceAlpha" type="matrix" values="0 0 0 0 0 0 0 0 0 0 0 0 0 0 0 0 0 0 127 0" result="hardAlpha"/>
<feOffset dx="4" dy="4"/>
<feGaussianBlur stdDeviation="25"/>
<feComposite in2="hardAlpha" operator="out"/>
<feColorMatrix type="matrix" values="0 0 0 0 0.733333 0 0 0 0 0.74902 0 0 0 0 0.764706 0 0 0 0.3 0"/>
<feBlend mode="normal" in2="BackgroundImageFix" result="effect1_dropShadow_3266_8754"/>
<feColorMatrix in="SourceAlpha" type="matrix" values="0 0 0 0 0 0 0 0 0 0 0 0 0 0 0 0 0 0 127 0" result="hardAlpha"/>
<feOffset/>
<feGaussianBlur stdDeviation="2"/>
<feComposite in2="hardAlpha" operator="out"/>
<feColorMatrix type="matrix" values="0 0 0 0 0.733333 0 0 0 0 0.74902 0 0 0 0 0.764706 0 0 0 0.2 0"/>
<feBlend mode="normal" in2="effect1_dropShadow_3266_8754" result="effect2_dropShadow_3266_8754"/>
<feBlend mode="normal" in="SourceGraphic" in2="effect2_dropShadow_3266_8754" result="shape"/>
</filter>
<clipPath id="clip0_3266_8754">
<rect width="343" height="308" fill="white"/>
</clipPath>
</defs>
</svg>
