<svg width="343" height="308" viewBox="0 0 343 308" fill="none" xmlns="http://www.w3.org/2000/svg">
<rect width="343" height="308" fill="white"/>
<g clip-path="url(#clip0_3185_8465)">
<path opacity="0.4" d="M55.7728 118.497L52.2354 129.57C51.0666 133.225 54.4327 136.715 58.2973 135.873L70.0005 133.285C73.8651 132.428 75.3144 127.87 72.6185 125.071L64.4528 116.587C61.7568 113.788 56.9416 114.856 55.7728 118.497Z" stroke="#4876EE" stroke-miterlimit="10"/>
<path d="M222.474 102.403C194.733 76.7573 151.89 76.5028 123.852 101.827L123.785 101.881C98.9478 124.312 93.2327 159.908 107.621 188.352C109.41 191.888 112.368 194.794 116.12 196.106C120.894 197.78 126.649 197.071 132.929 190.763L190.967 132.575C192.057 131.477 193.361 130.633 194.719 130.164H196.239C200.273 130.164 202.761 133.365 201.281 137.101C200.797 138.333 200.004 139.512 199.009 140.516L191.828 147.721C190.403 149.141 189.461 150.922 189.192 152.649L188.91 192.638C188.587 194.714 187.458 196.843 185.75 198.544L184.526 199.762C183.504 200.793 182.065 200.927 181.474 200.057L168.9 174.331C168.134 173.193 166.251 173.38 164.907 174.719L140.97 198.691C140.89 198.771 140.796 198.865 140.715 198.959C132.821 207.061 132.848 219.984 140.446 228.367L169.748 260.642C171.711 262.812 175.14 262.785 177.076 260.602L227.53 203.713C253.726 174.17 251.493 129.214 222.488 102.389L222.474 102.403ZM172.397 144.279L159.205 157.511C158.304 158.408 157.08 158.729 156.273 158.274L135.699 149.234C134.677 148.659 134.771 147.078 135.901 145.94L137.891 143.945C139.424 142.405 141.387 141.454 143.203 141.36L172.02 142.498C172.935 142.445 173.15 143.516 172.383 144.279H172.397Z" fill="url(#paint0_radial_3185_8465)"/>
<path opacity="0.1" d="M172.948 302.759C204.14 302.759 229.426 299.719 229.426 295.969C229.426 292.22 204.14 289.18 172.948 289.18C141.756 289.18 116.469 292.22 116.469 295.969C116.469 299.719 141.756 302.759 172.948 302.759Z" fill="#4876EE"/>
<path opacity="0.1" d="M172.948 305.665C217.508 305.665 253.632 301.324 253.632 295.969C253.632 290.615 217.508 286.274 172.948 286.274C128.388 286.274 92.2646 290.615 92.2646 295.969C92.2646 301.324 128.388 305.665 172.948 305.665Z" stroke="#4876EE" stroke-width="0.5" stroke-miterlimit="10"/>
<path opacity="0.1" d="M172.948 299.719C190.156 299.719 204.105 298.04 204.105 295.969C204.105 293.899 190.156 292.22 172.948 292.22C155.74 292.22 141.791 293.899 141.791 295.969C141.791 298.04 155.74 299.719 172.948 299.719Z" fill="#4876EE"/>
<path opacity="0.1" d="M172.948 297.603C180.479 297.603 186.584 296.872 186.584 295.97C186.584 295.067 180.479 294.336 172.948 294.336C165.417 294.336 159.312 295.067 159.312 295.97C159.312 296.872 165.417 297.603 172.948 297.603Z" fill="#4876EE"/>
<path opacity="0.6" d="M268.491 233.442H263.959V228.929C263.959 228.233 263.394 227.67 262.695 227.67C261.996 227.67 261.431 228.233 261.431 228.929V233.442H256.899C256.2 233.442 255.635 234.005 255.635 234.701C255.635 235.398 256.2 235.96 256.899 235.96H261.431V240.473C261.431 241.17 261.996 241.732 262.695 241.732C263.394 241.732 263.959 241.17 263.959 240.473V235.96H268.491C269.19 235.96 269.755 235.398 269.755 234.701C269.755 234.005 269.19 233.442 268.491 233.442Z" fill="#4876EE"/>
<path opacity="0.5" d="M242.599 62.9901L237.61 65.8108L234.79 60.8219C234.348 60.043 233.379 59.7694 232.601 60.2114C231.822 60.6535 231.548 61.6218 231.99 62.4007L234.811 67.3895L229.822 70.2103C229.043 70.6523 228.769 71.6206 229.211 72.3995C229.653 73.1783 230.622 73.452 231.401 73.0099L236.39 70.1892L239.21 75.1781C239.652 75.957 240.621 76.2306 241.399 75.7886C242.178 75.3465 242.452 74.3782 242.01 73.5993L239.189 68.6105L244.178 65.7897C244.957 65.3477 245.231 64.3794 244.789 63.6005C244.347 62.8217 243.378 62.548 242.599 62.9901Z" fill="#4876EE"/>
<path opacity="0.4" d="M296.945 190.32L283.915 198.798C281.051 200.659 281.293 204.904 284.332 206.444L298.209 213.435C301.262 214.975 304.825 212.645 304.637 209.243L303.776 193.776C303.588 190.374 299.783 188.459 296.918 190.32H296.945Z" stroke="#4876EE" stroke-miterlimit="10"/>
<path opacity="0.3" d="M256.5 115C258.985 115 261 112.985 261 110.5C261 108.015 258.985 106 256.5 106C254.015 106 252 108.015 252 110.5C252 112.985 254.015 115 256.5 115Z" stroke="#4876EE" stroke-miterlimit="10"/>
<path opacity="0.3" d="M78.5 94C80.9853 94 83 91.9853 83 89.5C83 87.0147 80.9853 85 78.5 85C76.0147 85 74 87.0147 74 89.5C74 91.9853 76.0147 94 78.5 94Z" stroke="#4876EE" stroke-miterlimit="10"/>
<path opacity="0.2" d="M76.1279 208.252C79.4699 208.252 82.1792 205.554 82.1792 202.226C82.1792 198.898 79.4699 196.199 76.1279 196.199C72.7859 196.199 70.0767 198.898 70.0767 202.226C70.0767 205.554 72.7859 208.252 76.1279 208.252Z" stroke="#4876EE" stroke-miterlimit="10"/>
<path opacity="0.4" d="M165.467 44.7633L160.182 48.205C158.501 49.3031 158.636 51.8074 160.438 52.7047L166.072 55.5438C167.861 56.4544 169.972 55.0751 169.864 53.0797L169.515 46.7988C169.407 44.8034 167.162 43.6651 165.481 44.7633H165.467Z" stroke="#4876EE" stroke-miterlimit="10"/>
</g>
<path opacity="0.6" d="M42.5002 103.701L40.3083 103.006L41.142 101.179C41.2765 100.899 41.1017 100.585 40.7655 100.473C40.4293 100.361 40.0528 100.506 39.9183 100.787L39.0846 102.614L36.8927 101.919C36.5565 101.807 36.18 101.952 36.0455 102.232C35.911 102.513 36.0858 102.827 36.422 102.939L38.6139 103.634L37.7802 105.461C37.6457 105.741 37.8205 106.055 38.1567 106.167C38.4929 106.279 38.8694 106.133 39.0039 105.853L39.8376 104.026L42.0295 104.721C42.3657 104.833 42.7422 104.687 42.8767 104.407C43.0112 104.127 42.8364 103.813 42.5002 103.701Z" fill="#4876EE"/>
<defs>
<radialGradient id="paint0_radial_3185_8465" cx="0" cy="0" r="1" gradientUnits="userSpaceOnUse" gradientTransform="translate(172.741 172.054) rotate(-8.20658) scale(81.9272 111.797)">
<stop offset="0.17" stop-color="#4876EE" stop-opacity="0.8"/>
<stop offset="0.58" stop-color="#4876EE" stop-opacity="0.91"/>
<stop offset="1" stop-color="#4876EE"/>
</radialGradient>
<clipPath id="clip0_3185_8465">
<rect width="266" height="262" fill="white" transform="translate(39 44)"/>
</clipPath>
</defs>
</svg>
