<svg width="343" height="308" viewBox="0 0 343 308" fill="none" xmlns="http://www.w3.org/2000/svg">
<g clip-path="url(#clip0_3268_8838)">
<rect width="343" height="308" fill="white"/>
<path d="M72.8642 237.452L143.602 207.716C147.052 206.266 148.5 201.883 146.837 197.926L105.455 99.4731C103.792 95.5162 99.6473 93.4841 96.1976 94.9342L25.4599 124.669C22.0102 126.119 20.5619 130.503 22.225 134.46L63.6065 232.913C65.2697 236.87 69.4145 238.902 72.8642 237.452Z" fill="#DAE3FC"/>
<path d="M230.892 151.622L285.712 172.667C288.794 173.85 292.357 172.038 293.669 168.619L322.346 93.9101C323.658 90.491 322.224 86.7602 319.142 85.5771L264.321 64.5324C261.239 63.3492 257.676 65.1618 256.364 68.5808L227.687 143.289C226.375 146.708 227.81 150.439 230.892 151.622Z" fill="#F1F5FE"/>
<g filter="url(#filter0_dd_3268_8838)">
<path d="M225.765 149.642C232.258 149.642 237.522 144.378 237.522 137.885C237.522 131.392 232.258 126.128 225.765 126.128C219.273 126.128 214.009 131.392 214.009 137.885C214.009 144.378 219.273 149.642 225.765 149.642Z" stroke="#525960" stroke-miterlimit="10"/>
<path d="M192.059 150.428C198.552 150.428 203.815 145.165 203.815 138.672C203.815 132.178 198.552 126.915 192.059 126.915C185.566 126.915 180.302 132.178 180.302 138.672C180.302 145.165 185.566 150.428 192.059 150.428Z" stroke="#525960" stroke-miterlimit="10"/>
<path d="M157.576 150.428C164.069 150.428 169.333 145.165 169.333 138.672C169.333 132.178 164.069 126.915 157.576 126.915C151.083 126.915 145.82 132.178 145.82 138.672C145.82 145.165 151.083 150.428 157.576 150.428Z" stroke="#525960" stroke-miterlimit="10"/>
<path d="M119.947 150.428C126.44 150.428 131.703 145.165 131.703 138.672C131.703 132.178 126.44 126.915 119.947 126.915C113.454 126.915 108.19 132.178 108.19 138.672C108.19 145.165 113.454 150.428 119.947 150.428Z" stroke="#525960" stroke-miterlimit="10"/>
<path d="M102.695 273.505H240.658L240.658 137.098L102.695 137.098L102.695 273.505Z" fill="#525960"/>
<path d="M113.675 273.505H251.638L251.638 137.098L113.675 137.098L113.675 273.505Z" fill="white"/>
<path d="M113.675 163.759L251.638 163.759V137.109L113.675 137.109V163.759Z" fill="#4876EE"/>
<rect x="129.829" y="212.076" width="57.9412" height="6.32116" rx="3.16058" fill="#F2F2F2"/>
<rect x="129.829" y="232.093" width="106.401" height="6.32116" rx="3.16058" fill="#F2F2F2"/>
<rect x="129.829" y="252.11" width="106.401" height="6.32116" rx="3.16058" fill="#F2F2F2"/>
</g>
<path d="M132.09 180.682H134.997L138.137 188.354H138.262L141.403 180.682H144.309V191.995H142.028V184.589H141.934L138.981 191.948H137.419L134.465 184.557H134.372V191.995H132.09V180.682ZM145.442 189.62C145.442 187.729 146.974 187.104 148.599 187.01C149.208 186.971 150.349 186.917 150.708 186.901V186.214C150.692 185.51 150.208 185.089 149.349 185.089C148.567 185.089 148.067 185.448 147.942 186.026H145.739C145.88 184.557 147.161 183.401 149.411 183.401C151.255 183.401 153.005 184.229 153.005 186.276V191.995H150.817V190.823H150.755C150.333 191.604 149.536 192.151 148.27 192.151C146.645 192.151 145.442 191.307 145.442 189.62ZM147.661 189.557C147.661 190.214 148.192 190.557 148.927 190.557C149.974 190.557 150.724 189.854 150.708 188.964V188.339C150.356 188.354 149.372 188.409 148.974 188.448C148.177 188.526 147.661 188.901 147.661 189.557ZM155.497 195.182C155.044 195.182 154.622 195.167 154.325 195.135V193.339C154.622 193.354 154.966 193.37 155.263 193.37C155.716 193.37 156.091 193.323 156.372 192.589L156.513 192.229L153.466 183.51H155.888L157.669 189.76H157.763L159.56 183.51H162.013L158.7 192.932C158.216 194.292 157.294 195.182 155.497 195.182Z" fill="#6A727C"/>
<path d="M214.109 192.888L214.089 190.759L219.168 186.091C220.496 184.822 221.199 184.04 221.199 182.927C221.199 181.677 220.242 180.896 218.953 180.896C217.625 180.896 216.765 181.736 216.765 183.083H213.972C213.953 180.31 216.003 178.552 218.992 178.552C222.019 178.552 224.031 180.271 224.031 182.732C224.031 184.333 223.25 185.661 220.339 188.298L218.191 190.388V190.466H224.226V192.888H214.109ZM231.111 193.083C228.162 193.083 226.014 191.345 225.955 188.904H228.807C228.865 190.017 229.881 190.759 231.111 190.759C232.576 190.759 233.611 189.724 233.611 188.259C233.611 186.755 232.557 185.72 231.072 185.7C230.018 185.7 229.275 186.091 228.846 186.892H226.189L226.951 178.747H235.662V181.15H229.373L228.982 184.724H229.1C229.627 184.021 230.682 183.532 231.932 183.532C234.529 183.532 236.463 185.466 236.463 188.181C236.463 191.032 234.295 193.083 231.111 193.083Z" fill="#6A727C"/>
<path opacity="0.3" d="M165.5 88C167.433 88 169 86.433 169 84.5C169 82.567 167.433 81 165.5 81C163.567 81 162 82.567 162 84.5C162 86.433 163.567 88 165.5 88Z" stroke="#4876EE" stroke-miterlimit="10"/>
<path opacity="0.5" d="M288.727 256.378L285.159 257.157L284.379 253.589C284.256 253.032 283.718 252.683 283.161 252.806C282.603 252.928 282.255 253.467 282.378 254.024L283.157 257.592L279.589 258.372C279.032 258.495 278.683 259.033 278.806 259.59C278.928 260.148 279.467 260.497 280.024 260.374L283.592 259.594L284.372 263.162C284.495 263.72 285.033 264.068 285.59 263.946C286.148 263.823 286.496 263.285 286.374 262.727L285.594 259.159L289.162 258.379C289.72 258.257 290.068 257.718 289.946 257.161C289.823 256.604 289.285 256.255 288.727 256.378Z" fill="#4876EE"/>
<path opacity="0.5" d="M66.0629 278.574L63.9122 279.044L63.4422 276.893C63.3683 276.557 63.0439 276.347 62.7079 276.421C62.372 276.495 62.1618 276.819 62.2358 277.155L62.7058 279.306L60.5551 279.776C60.2191 279.85 60.009 280.174 60.0829 280.51C60.1569 280.846 60.4813 281.056 60.8173 280.982L62.968 280.512L63.4379 282.663C63.5119 282.999 63.8363 283.209 64.1722 283.135C64.5082 283.061 64.7184 282.737 64.6444 282.401L64.1744 280.25L66.3251 279.78C66.6611 279.706 66.8712 279.382 66.7972 279.046C66.7232 278.71 66.3989 278.5 66.0629 278.574Z" fill="#4876EE"/>
<path opacity="0.5" d="M143.599 94.9901L138.61 97.8108L135.79 92.8219C135.348 92.043 134.379 91.7694 133.601 92.2114C132.822 92.6535 132.548 93.6218 132.99 94.4007L135.811 99.3895L130.822 102.21C130.043 102.652 129.769 103.621 130.211 104.399C130.653 105.178 131.622 105.452 132.401 105.01L137.39 102.189L140.21 107.178C140.652 107.957 141.621 108.231 142.399 107.789C143.178 107.347 143.452 106.378 143.01 105.599L140.189 100.61L145.178 97.7897C145.957 97.3477 146.231 96.3794 145.789 95.6005C145.347 94.8217 144.378 94.548 143.599 94.9901Z" fill="#4876EE"/>
<path opacity="0.4" d="M269.915 276.664L267.182 285.101C266.279 287.886 268.88 290.545 271.866 289.903L280.909 287.932C283.896 287.278 285.016 283.805 282.932 281.673L276.623 275.209C274.539 273.077 270.818 273.891 269.915 276.664Z" stroke="#4876EE" stroke-miterlimit="10"/>
</g>
<defs>
<filter id="filter0_dd_3268_8838" x="56.6946" y="79.6279" width="248.944" height="247.877" filterUnits="userSpaceOnUse" color-interpolation-filters="sRGB">
<feFlood flood-opacity="0" result="BackgroundImageFix"/>
<feColorMatrix in="SourceAlpha" type="matrix" values="0 0 0 0 0 0 0 0 0 0 0 0 0 0 0 0 0 0 127 0" result="hardAlpha"/>
<feOffset dx="4" dy="4"/>
<feGaussianBlur stdDeviation="25"/>
<feComposite in2="hardAlpha" operator="out"/>
<feColorMatrix type="matrix" values="0 0 0 0 0.733333 0 0 0 0 0.74902 0 0 0 0 0.764706 0 0 0 0.3 0"/>
<feBlend mode="normal" in2="BackgroundImageFix" result="effect1_dropShadow_3268_8838"/>
<feColorMatrix in="SourceAlpha" type="matrix" values="0 0 0 0 0 0 0 0 0 0 0 0 0 0 0 0 0 0 127 0" result="hardAlpha"/>
<feOffset/>
<feGaussianBlur stdDeviation="2"/>
<feComposite in2="hardAlpha" operator="out"/>
<feColorMatrix type="matrix" values="0 0 0 0 0.733333 0 0 0 0 0.74902 0 0 0 0 0.764706 0 0 0 0.2 0"/>
<feBlend mode="normal" in2="effect1_dropShadow_3268_8838" result="effect2_dropShadow_3268_8838"/>
<feBlend mode="normal" in="SourceGraphic" in2="effect2_dropShadow_3268_8838" result="shape"/>
</filter>
<clipPath id="clip0_3268_8838">
<rect width="343" height="308" fill="white"/>
</clipPath>
</defs>
</svg>
