<svg width="20" height="20" viewBox="0 0 20 20" fill="none" xmlns="http://www.w3.org/2000/svg">
<rect width="20" height="20" fill="black"/>
<g clip-path="url(#clip0_1895_698)">
<path d="M13.6133 4.77881C13.7923 4.77881 14.0975 4.80729 14.5288 4.86426C14.9601 4.92122 15.4321 5.08398 15.9448 5.35254C16.4657 5.61296 16.9377 6.04834 17.3608 6.65869C17.3364 6.68311 17.2184 6.77262 17.0068 6.92725C16.7952 7.07373 16.5592 7.29346 16.2988 7.58643C16.0384 7.87126 15.8105 8.23747 15.6152 8.68506C15.4199 9.12451 15.3223 9.64941 15.3223 10.2598C15.3223 10.9596 15.4443 11.5537 15.6885 12.042C15.9408 12.5303 16.2297 12.925 16.5552 13.2261C16.8888 13.519 17.1818 13.7347 17.4341 13.873C17.6945 14.0114 17.8328 14.0846 17.8491 14.0928C17.841 14.1253 17.7352 14.4142 17.5317 14.9595C17.3364 15.5047 17.0109 16.111 16.5552 16.7783C16.1564 17.3561 15.7251 17.8892 15.2612 18.3774C14.8055 18.8657 14.2562 19.1099 13.6133 19.1099C13.182 19.1099 12.828 19.0488 12.5513 18.9268C12.2746 18.7965 11.9897 18.6704 11.6968 18.5483C11.4038 18.4181 11.0091 18.353 10.5127 18.353C10.0325 18.353 9.62972 18.4181 9.3042 18.5483C8.98682 18.6785 8.68164 18.8088 8.38867 18.939C8.10384 19.0692 7.76611 19.1343 7.37549 19.1343C6.78141 19.1343 6.26058 18.8983 5.81299 18.4263C5.3654 17.9543 4.9056 17.3887 4.43359 16.7295C3.88835 15.9482 3.42041 14.9961 3.02979 13.873C2.6473 12.7419 2.45605 11.6025 2.45605 10.4551C2.45605 9.22624 2.68799 8.19678 3.15186 7.3667C3.61572 6.52848 4.2098 5.89779 4.93408 5.47461C5.6665 5.04329 6.42334 4.82764 7.20459 4.82764C7.61963 4.82764 8.01025 4.89681 8.37646 5.03516C8.74268 5.16536 9.08447 5.29964 9.40186 5.43799C9.72738 5.57633 10.0203 5.64551 10.2808 5.64551C10.533 5.64551 10.826 5.57227 11.1597 5.42578C11.4933 5.2793 11.8677 5.13688 12.2827 4.99854C12.6978 4.85205 13.1413 4.77881 13.6133 4.77881ZM12.9419 3.22852C12.6245 3.611 12.2257 3.93245 11.7456 4.19287C11.2655 4.44515 10.8097 4.57129 10.3784 4.57129C10.2889 4.57129 10.2034 4.56315 10.1221 4.54688C10.1139 4.52246 10.1058 4.4777 10.0977 4.4126C10.0895 4.34749 10.0854 4.27832 10.0854 4.20508C10.0854 3.7168 10.1912 3.24479 10.4028 2.78906C10.6144 2.3252 10.8545 1.94271 11.123 1.6416C11.4648 1.2347 11.8962 0.896973 12.417 0.628418C12.9378 0.359863 13.4342 0.217448 13.9062 0.201172C13.9307 0.306966 13.9429 0.433105 13.9429 0.57959C13.9429 1.06787 13.8493 1.54395 13.6621 2.00781C13.4749 2.46354 13.2349 2.87044 12.9419 3.22852Z" fill="white"/>
</g>
<defs>
<clipPath id="clip0_1895_698">
<rect width="16" height="20" fill="white" transform="translate(2)"/>
</clipPath>
</defs>
</svg>
