<svg width="24" height="24" viewBox="0 0 24 24" fill="none" xmlns="http://www.w3.org/2000/svg">
<path fill-rule="evenodd" clip-rule="evenodd" d="M7 3.25C7.41421 3.25 7.75 3.58579 7.75 4V18.1893L10.4697 15.4697C10.7626 15.1768 11.2374 15.1768 11.5303 15.4697C11.8232 15.7626 11.8232 16.2374 11.5303 16.5303L7.53033 20.5303C7.23744 20.8232 6.76256 20.8232 6.46967 20.5303L2.46967 16.5303C2.17678 16.2374 2.17678 15.7626 2.46967 15.4697C2.76256 15.1768 3.23744 15.1768 3.53033 15.4697L6.25 18.1893V4C6.25 3.58579 6.58579 3.25 7 3.25ZM16.4697 3.46967C16.7626 3.17678 17.2374 3.17678 17.5303 3.46967L21.5303 7.46967C21.8232 7.76256 21.8232 8.23744 21.5303 8.53033C21.2374 8.82322 20.7626 8.82322 20.4697 8.53033L17.75 5.81066V20C17.75 20.4142 17.4142 20.75 17 20.75C16.5858 20.75 16.25 20.4142 16.25 20V5.81066L13.5303 8.53033C13.2374 8.82322 12.7626 8.82322 12.4697 8.53033C12.1768 8.23744 12.1768 7.76256 12.4697 7.46967L16.4697 3.46967Z" fill="#0C0D0E"/>
</svg>
