<svg width="24" height="24" viewBox="0 0 24 24" fill="none" xmlns="http://www.w3.org/2000/svg">
<path fill-rule="evenodd" clip-rule="evenodd" d="M9.5 3.25C9.27742 3.25 9.06633 3.34887 8.92383 3.51986L6.64872 6.25H4C3.27065 6.25 2.57118 6.53973 2.05546 7.05546C1.53973 7.57118 1.25 8.27065 1.25 9V18C1.25 18.7293 1.53973 19.4288 2.05546 19.9445C2.57118 20.4603 3.27065 20.75 4 20.75H20C20.7293 20.75 21.4288 20.4603 21.9445 19.9445C22.4603 19.4288 22.75 18.7293 22.75 18V9C22.75 8.27065 22.4603 7.57118 21.9445 7.05546C21.4288 6.53973 20.7293 6.25 20 6.25H17.3513L15.0762 3.51986C14.9337 3.34887 14.7226 3.25 14.5 3.25H9.5ZM7.57617 7.48014L9.85128 4.75H14.1487L16.4238 7.48014C16.5663 7.65113 16.7774 7.75 17 7.75H20C20.3315 7.75 20.6495 7.8817 20.8839 8.11612C21.1183 8.35054 21.25 8.66848 21.25 9V18C21.25 18.3315 21.1183 18.6495 20.8839 18.8839C20.6495 19.1183 20.3315 19.25 20 19.25H4C3.66848 19.25 3.35054 19.1183 3.11612 18.8839C2.8817 18.6495 2.75 18.3315 2.75 18V9C2.75 8.66848 2.8817 8.35054 3.11612 8.11612C3.35054 7.8817 3.66848 7.75 4 7.75H7C7.22258 7.75 7.43367 7.65113 7.57617 7.48014ZM9.75 13C9.75 11.7574 10.7574 10.75 12 10.75C13.2426 10.75 14.25 11.7574 14.25 13C14.25 14.2426 13.2426 15.25 12 15.25C10.7574 15.25 9.75 14.2426 9.75 13ZM12 9.25C9.92893 9.25 8.25 10.9289 8.25 13C8.25 15.0711 9.92893 16.75 12 16.75C14.0711 16.75 15.75 15.0711 15.75 13C15.75 10.9289 14.0711 9.25 12 9.25Z" fill="#0C0D0E"/>
</svg>
