<svg width="24" height="24" viewBox="0 0 24 24" fill="none" xmlns="http://www.w3.org/2000/svg">
<path fill-rule="evenodd" clip-rule="evenodd" d="M2.75 12C2.75 6.89137 6.89137 2.75 12 2.75C17.1086 2.75 21.25 6.89137 21.25 12C21.25 17.1086 17.1086 21.25 12 21.25C6.89137 21.25 2.75 17.1086 2.75 12ZM12 1.25C6.06294 1.25 1.25 6.06294 1.25 12C1.25 17.9371 6.06294 22.75 12 22.75C17.9371 22.75 22.75 17.9371 22.75 12C22.75 6.06294 17.9371 1.25 12 1.25ZM16.9515 7.99724C17.0414 7.72773 16.9712 7.43058 16.7704 7.2297C16.5695 7.02882 16.2723 6.95868 16.0028 7.04853L10.5918 8.85252C10.1868 8.98753 9.81877 9.21498 9.51688 9.51688C9.21499 9.81876 8.98751 10.1869 8.85251 10.5919L7.04853 16.0028C6.95868 16.2723 7.02882 16.5695 7.2297 16.7704C7.43058 16.9712 7.72773 17.0414 7.99724 16.9515L13.4082 15.1475C13.8133 15.0125 14.1813 14.7851 14.4832 14.4832C14.7851 14.1813 15.0125 13.8132 15.1476 13.4082L16.9515 7.99724ZM11.0662 10.2755L15.054 8.94602L13.7245 12.9339C13.6631 13.118 13.5598 13.2853 13.4225 13.4225C13.2853 13.5598 13.1179 13.6632 12.9338 13.7245L8.94602 15.054L10.2756 11.0662C10.3369 10.8821 10.4403 10.7148 10.5775 10.5775C10.7148 10.4403 10.8821 10.3369 11.0662 10.2755Z" fill="#0C0D0E"/>
</svg>
