<svg width="25" height="24" viewBox="0 0 25 24" fill="none" xmlns="http://www.w3.org/2000/svg">
<path fill-rule="evenodd" clip-rule="evenodd" d="M12.0306 2.43095C12.2232 2.31712 12.4428 2.25708 12.6666 2.25708C12.8903 2.25708 13.1099 2.31712 13.3025 2.43095C13.4951 2.54478 13.6537 2.70821 13.7616 2.90419L13.7682 2.91632L16.7173 8.51499C16.7348 8.54629 16.7588 8.57348 16.7877 8.59469C16.8175 8.61651 16.8517 8.63147 16.888 8.6385C16.9242 8.64553 16.9615 8.64444 16.9973 8.63533C17.0316 8.62658 17.0637 8.61064 17.0914 8.58857L21.3616 4.93035L21.3763 4.91808C21.5816 4.75113 21.8345 4.65362 22.0987 4.63958C22.3629 4.62554 22.6248 4.69569 22.8466 4.83995C23.0684 4.9842 23.2387 5.19511 23.333 5.44231C23.4273 5.6895 23.4407 5.96025 23.3713 6.21558L23.3704 6.21886L20.5366 16.4644C20.5365 16.4646 20.5366 16.4642 20.5366 16.4644C20.4353 16.8311 20.2171 17.1553 19.9153 17.387C19.6134 17.6188 19.2442 17.7459 18.8636 17.7489L18.8576 17.7489H6.47133C6.09042 17.7463 5.72077 17.6194 5.41852 17.3876C5.11637 17.1558 4.89806 16.8318 4.79669 16.4648L1.9628 6.21658C1.89343 5.96126 1.90686 5.69051 2.00116 5.44331C2.09546 5.1961 2.26576 4.9852 2.48756 4.84095C2.70936 4.69669 2.9712 4.62654 3.23541 4.64058C3.49961 4.65462 3.75255 4.75213 3.95781 4.91908L3.97257 4.93141L8.2418 8.5896C8.26947 8.61165 8.30152 8.62758 8.33584 8.63633C8.37161 8.64545 8.40895 8.64653 8.44518 8.6395C8.48141 8.63248 8.51564 8.61751 8.5454 8.59569C8.57434 8.57447 8.59836 8.54729 8.61584 8.51598L11.5715 2.90413C11.6794 2.70815 11.838 2.54478 12.0306 2.43095ZM12.6666 4.04372L15.393 9.21947L15.3973 9.22756C15.5205 9.45465 15.6925 9.65164 15.9008 9.80439C16.1092 9.95715 16.3488 10.0619 16.6024 10.1111C16.856 10.1603 17.1174 10.1527 17.3677 10.0889C17.6181 10.0251 17.8512 9.90663 18.0503 9.74206L21.7057 6.61074L19.0907 16.065C19.0762 16.1174 19.045 16.1641 19.0018 16.1973C18.9592 16.23 18.9072 16.2481 18.8536 16.2489H6.48007C6.42626 16.2482 6.37412 16.2301 6.3314 16.1973C6.28822 16.1642 6.25703 16.1179 6.24255 16.0654L3.62839 6.61184L7.27256 9.73444L7.2828 9.74306C7.48195 9.90763 7.71507 10.0261 7.96542 10.0899C8.21576 10.1537 8.47713 10.1613 8.73075 10.1121C8.98438 10.0629 9.22397 9.95815 9.43232 9.80539C9.64067 9.65264 9.81261 9.45565 9.9358 9.22856L12.6666 4.04372ZM4.91657 20.9999C4.91657 20.5857 5.25235 20.2499 5.66657 20.2499H19.6666C20.0808 20.2499 20.4166 20.5857 20.4166 20.9999C20.4166 21.4141 20.0808 21.7499 19.6666 21.7499H5.66657C5.25235 21.7499 4.91657 21.4141 4.91657 20.9999Z" fill="#0C0D0E"/>
</svg>
