<svg width="20" height="20" viewBox="0 0 20 20" fill="none" xmlns="http://www.w3.org/2000/svg">
<path d="M18.8 10.2083C18.8 9.55825 18.7417 8.93325 18.6333 8.33325H10V11.8791H14.9333C14.7208 13.0249 14.075 13.9958 13.1042 14.6458V16.9458H16.0667C17.8 15.3499 18.8 12.9999 18.8 10.2083Z" fill="#4285F4"/>
<path d="M9.99977 19.1667C12.4748 19.1667 14.5498 18.3459 16.0664 16.9459L13.1039 14.6459C12.2831 15.1959 11.2331 15.5209 9.99977 15.5209C7.61227 15.5209 5.59144 13.9084 4.8706 11.7417H1.80811V14.1167C3.31644 17.1125 6.41644 19.1667 9.99977 19.1667Z" fill="#34A853"/>
<path d="M4.871 11.7416C4.68766 11.1916 4.5835 10.6041 4.5835 9.99997C4.5835 9.3958 4.68766 8.8083 4.871 8.2583V5.8833H1.8085C1.16683 7.16068 0.832931 8.57048 0.833497 9.99997C0.833497 11.4791 1.18766 12.8791 1.8085 14.1166L4.871 11.7416Z" fill="#FBBC05"/>
<path d="M9.99977 4.47909C11.3456 4.47909 12.5539 4.94159 13.5039 5.84992L16.1331 3.22075C14.5456 1.74159 12.4706 0.833252 9.99977 0.833252C6.41644 0.833252 3.31644 2.88742 1.80811 5.88325L4.8706 8.25825C5.59144 6.09159 7.61227 4.47909 9.99977 4.47909Z" fill="#EA4335"/>
</svg>
