<svg width="24" height="24" viewBox="0 0 24 24" fill="none" xmlns="http://www.w3.org/2000/svg">
<path fill-rule="evenodd" clip-rule="evenodd" d="M4.19314 9.0448L11.1949 3.04432C11.4202 2.85457 11.7054 2.75049 12 2.75049C12.2946 2.75049 12.5798 2.85457 12.8051 3.04432L12.8069 3.04579L19.8029 9.04146L19.8069 9.04479C19.9458 9.16216 20.0574 9.30842 20.1339 9.47336C20.2104 9.6383 20.25 9.81813 20.25 9.99997V19C20.25 19.3315 20.1183 19.6494 19.8839 19.8839C19.6495 20.1183 19.3315 20.25 19 20.25H15.75V13C15.75 12.5359 15.5656 12.0908 15.2374 11.7626C14.9092 11.4344 14.4641 11.25 14 11.25H10C9.53587 11.25 9.09075 11.4344 8.76256 11.7626C8.43438 12.0908 8.25 12.5359 8.25 13V20.25H5C4.66848 20.25 4.35054 20.1183 4.11612 19.8839C3.8817 19.6494 3.75 19.3315 3.75 19V9.99979C3.74996 9.81796 3.78958 9.6383 3.86612 9.47336C3.94265 9.30842 4.05426 9.16217 4.19314 9.0448ZM8.99295 21.75C8.9953 21.75 8.99765 21.75 9 21.75C9.00235 21.75 9.0047 21.75 9.00705 21.75H14.993C14.9953 21.75 14.9976 21.75 15 21.75C15.0024 21.75 15.0047 21.75 15.007 21.75H19C19.7293 21.75 20.4288 21.4602 20.9445 20.9445C21.4603 20.4288 21.75 19.7293 21.75 19V9.99997C21.7501 9.6 21.6629 9.20483 21.4945 8.84201C21.3266 8.47998 21.0818 8.15886 20.7773 7.90095L20.7751 7.89915L13.7791 1.90347L13.7751 1.90015C13.2788 1.48065 12.6499 1.25049 12 1.25049C11.3501 1.25049 10.7212 1.48065 10.2249 1.90015L3.22273 7.90096C2.9182 8.15887 2.67344 8.47998 2.50546 8.84201C2.33711 9.20482 2.24993 9.60018 2.25 10.0001V19C2.25 19.7293 2.53973 20.4288 3.05546 20.9445C3.57118 21.4602 4.27065 21.75 5 21.75H8.99295ZM14.25 20.25H9.75V13C9.75 12.9337 9.77634 12.8701 9.82322 12.8232C9.87011 12.7763 9.9337 12.75 10 12.75H14C14.0663 12.75 14.1299 12.7763 14.1768 12.8232C14.2237 12.8701 14.25 12.9337 14.25 13V20.25Z" fill="#0C0D0E"/>
</svg>
