<svg width="12" height="12" viewBox="0 0 12 12" fill="none" xmlns="http://www.w3.org/2000/svg">
<g clip-path="url(#clip0_2767_5308)">
<path d="M9.22914 6.13781L6.76867 5.23125L5.86211 2.77078C5.81594 2.6456 5.73249 2.53757 5.62303 2.46128C5.51357 2.38498 5.38335 2.34407 5.24992 2.34407C5.11649 2.34407 4.98627 2.38498 4.87681 2.46128C4.76734 2.53757 4.6839 2.6456 4.63773 2.77078L3.73117 5.23125L1.2707 6.13781C1.14552 6.18399 1.03749 6.26743 0.961197 6.37689C0.884899 6.48635 0.843994 6.61657 0.843994 6.75C0.843994 6.88343 0.884899 7.01365 0.961197 7.12311C1.03749 7.23258 1.14552 7.31602 1.2707 7.36219L3.73117 8.26875L4.63773 10.7292C4.6839 10.8544 4.76734 10.9624 4.87681 11.0387C4.98627 11.115 5.11649 11.1559 5.24992 11.1559C5.38335 11.1559 5.51357 11.115 5.62303 11.0387C5.73249 10.9624 5.81594 10.8544 5.86211 10.7292L6.76867 8.26875L9.22914 7.36219C9.35432 7.31602 9.46235 7.23258 9.53864 7.12311C9.61494 7.01365 9.65585 6.88343 9.65585 6.75C9.65585 6.61657 9.61494 6.48635 9.53864 6.37689C9.46235 6.26743 9.35432 6.18399 9.22914 6.13781ZM6.84367 1.875C6.84367 1.80041 6.8733 1.72887 6.92605 1.67613C6.97879 1.62338 7.05033 1.59375 7.12492 1.59375H7.96867V0.75C7.96867 0.675408 7.9983 0.603871 8.05105 0.551126C8.10379 0.498382 8.17533 0.46875 8.24992 0.46875C8.32451 0.46875 8.39605 0.498382 8.44879 0.551126C8.50154 0.603871 8.53117 0.675408 8.53117 0.75V1.59375H9.37492C9.44951 1.59375 9.52105 1.62338 9.57379 1.67613C9.62654 1.72887 9.65617 1.80041 9.65617 1.875C9.65617 1.94959 9.62654 2.02113 9.57379 2.07387C9.52105 2.12662 9.44951 2.15625 9.37492 2.15625H8.53117V3C8.53117 3.07459 8.50154 3.14613 8.44879 3.19887C8.39605 3.25162 8.32451 3.28125 8.24992 3.28125C8.17533 3.28125 8.10379 3.25162 8.05105 3.19887C7.9983 3.14613 7.96867 3.07459 7.96867 3V2.15625H7.12492C7.05033 2.15625 6.97879 2.12662 6.92605 2.07387C6.8733 2.02113 6.84367 1.94959 6.84367 1.875ZM11.5312 4.125C11.5312 4.19959 11.5015 4.27113 11.4488 4.32387C11.396 4.37662 11.3245 4.40625 11.2499 4.40625H10.7812V4.875C10.7812 4.94959 10.7515 5.02113 10.6988 5.07387C10.646 5.12662 10.5745 5.15625 10.4999 5.15625C10.4253 5.15625 10.3538 5.12662 10.301 5.07387C10.2483 5.02113 10.2187 4.94959 10.2187 4.875V4.40625H9.74992C9.67533 4.40625 9.60379 4.37662 9.55105 4.32387C9.4983 4.27113 9.46867 4.19959 9.46867 4.125C9.46867 4.05041 9.4983 3.97887 9.55105 3.92613C9.60379 3.87338 9.67533 3.84375 9.74992 3.84375H10.2187V3.375C10.2187 3.30041 10.2483 3.22887 10.301 3.17613C10.3538 3.12338 10.4253 3.09375 10.4999 3.09375C10.5745 3.09375 10.646 3.12338 10.6988 3.17613C10.7515 3.22887 10.7812 3.30041 10.7812 3.375V3.84375H11.2499C11.3245 3.84375 11.396 3.87338 11.4488 3.92613C11.5015 3.97887 11.5312 4.05041 11.5312 4.125Z" fill="#81A1F3" stroke="#81A1F3" stroke-width="0.25"/>
</g>
<defs>
<clipPath id="clip0_2767_5308">
<rect width="12" height="12" fill="white"/>
</clipPath>
</defs>
</svg>
