<svg width="24" height="24" viewBox="0 0 24 24" fill="none" xmlns="http://www.w3.org/2000/svg">
<path d="M18.4584 12.2756L13.5375 10.4625L11.7243 5.54156C11.632 5.29119 11.4651 5.07515 11.2462 4.92256C11.0273 4.76996 10.7668 4.68815 10.5 4.68815C10.2331 4.68815 9.97266 4.76996 9.75374 4.92256C9.53481 5.07515 9.36793 5.29119 9.27559 5.54156L7.46246 10.4625L2.54152 12.2756C2.29115 12.368 2.07511 12.5349 1.92252 12.7538C1.76992 12.9727 1.68811 13.2331 1.68811 13.5C1.68811 13.7669 1.76992 14.0273 1.92252 14.2462C2.07511 14.4652 2.29115 14.632 2.54152 14.7244L7.46246 16.5375L9.27559 21.4584C9.36793 21.7088 9.53481 21.9249 9.75374 22.0774C9.97266 22.23 10.2331 22.3119 10.5 22.3119C10.7668 22.3119 11.0273 22.23 11.2462 22.0774C11.4651 21.9249 11.632 21.7088 11.7243 21.4584L13.5375 16.5375L18.4584 14.7244C18.7088 14.632 18.9248 14.4652 19.0774 14.2462C19.23 14.0273 19.3118 13.7669 19.3118 13.5C19.3118 13.2331 19.23 12.9727 19.0774 12.7538C18.9248 12.5349 18.7088 12.368 18.4584 12.2756ZM18.0693 13.6688L12.9056 15.5719C12.8291 15.6 12.7596 15.6444 12.702 15.7021C12.6444 15.7597 12.6 15.8291 12.5718 15.9056L10.6687 21.0694C10.6559 21.1038 10.6329 21.1335 10.6027 21.1545C10.5726 21.1755 10.5367 21.1867 10.5 21.1867C10.4632 21.1867 10.4274 21.1755 10.3972 21.1545C10.367 21.1335 10.344 21.1038 10.3312 21.0694L8.42809 15.9056C8.39995 15.8291 8.35554 15.7597 8.29791 15.7021C8.24028 15.6444 8.17082 15.6 8.09434 15.5719L2.93059 13.6688C2.89614 13.656 2.86643 13.6329 2.84545 13.6028C2.82447 13.5726 2.81322 13.5367 2.81322 13.5C2.81322 13.4633 2.82447 13.4274 2.84545 13.3972C2.86643 13.3671 2.89614 13.344 2.93059 13.3313L8.09434 11.4281C8.17082 11.4 8.24028 11.3556 8.29791 11.2979C8.35554 11.2403 8.39995 11.1709 8.42809 11.0944L10.3312 5.93063C10.344 5.89618 10.367 5.86647 10.3972 5.84549C10.4274 5.82451 10.4632 5.81326 10.5 5.81326C10.5367 5.81326 10.5726 5.82451 10.6027 5.84549C10.6329 5.86647 10.6559 5.89618 10.6687 5.93063L12.5718 11.0944C12.6 11.1709 12.6444 11.2403 12.702 11.2979C12.7596 11.3556 12.8291 11.4 12.9056 11.4281L18.0693 13.3313C18.1038 13.344 18.1335 13.3671 18.1545 13.3972C18.1755 13.4274 18.1867 13.4633 18.1867 13.5C18.1867 13.5367 18.1755 13.5726 18.1545 13.6028C18.1335 13.6329 18.1038 13.656 18.0693 13.6688ZM13.6875 3.75C13.6875 3.60082 13.7467 3.45774 13.8522 3.35225C13.9577 3.24676 14.1008 3.1875 14.25 3.1875H15.9375V1.5C15.9375 1.35082 15.9967 1.20774 16.1022 1.10225C16.2077 0.996763 16.3508 0.9375 16.5 0.9375C16.6491 0.9375 16.7922 0.996763 16.8977 1.10225C17.0032 1.20774 17.0625 1.35082 17.0625 1.5V3.1875H18.75C18.8991 3.1875 19.0422 3.24676 19.1477 3.35225C19.2532 3.45774 19.3125 3.60082 19.3125 3.75C19.3125 3.89918 19.2532 4.04226 19.1477 4.14775C19.0422 4.25324 18.8991 4.3125 18.75 4.3125H17.0625V6C17.0625 6.14918 17.0032 6.29226 16.8977 6.39775C16.7922 6.50324 16.6491 6.5625 16.5 6.5625C16.3508 6.5625 16.2077 6.50324 16.1022 6.39775C15.9967 6.29226 15.9375 6.14918 15.9375 6V4.3125H14.25C14.1008 4.3125 13.9577 4.25324 13.8522 4.14775C13.7467 4.04226 13.6875 3.89918 13.6875 3.75ZM23.0625 8.25C23.0625 8.39918 23.0032 8.54226 22.8977 8.64775C22.7922 8.75324 22.6491 8.8125 22.5 8.8125H21.5625V9.75C21.5625 9.89919 21.5032 10.0423 21.3977 10.1477C21.2922 10.2532 21.1491 10.3125 21 10.3125C20.8508 10.3125 20.7077 10.2532 20.6022 10.1477C20.4967 10.0423 20.4375 9.89919 20.4375 9.75V8.8125H19.5C19.3508 8.8125 19.2077 8.75324 19.1022 8.64775C18.9967 8.54226 18.9375 8.39918 18.9375 8.25C18.9375 8.10082 18.9967 7.95774 19.1022 7.85225C19.2077 7.74676 19.3508 7.6875 19.5 7.6875H20.4375V6.75C20.4375 6.60082 20.4967 6.45774 20.6022 6.35225C20.7077 6.24676 20.8508 6.1875 21 6.1875C21.1491 6.1875 21.2922 6.24676 21.3977 6.35225C21.5032 6.45774 21.5625 6.60082 21.5625 6.75V7.6875H22.5C22.6491 7.6875 22.7922 7.74676 22.8977 7.85225C23.0032 7.95774 23.0625 8.10082 23.0625 8.25Z" fill="black" stroke="black" stroke-width="0.25"/>
</svg>
