<svg width="24" height="24" viewBox="0 0 24 24" fill="none" xmlns="http://www.w3.org/2000/svg">
<path fill-rule="evenodd" clip-rule="evenodd" d="M2.75 6C2.75 5.30964 3.30964 4.75 4 4.75H20C20.6904 4.75 21.25 5.30964 21.25 6V6.58805L12.6318 12.0645L12.63 12.0656C12.4411 12.1836 12.2228 12.2461 12 12.2461C11.7772 12.2461 11.5589 12.1836 11.3699 12.0656L2.75 6.58809V6ZM1.25 6.98585C1.24984 6.99488 1.24984 7.00391 1.25 7.01292V18C1.25 19.5188 2.48122 20.75 4 20.75H20C21.5188 20.75 22.75 19.5188 22.75 18V7.00952C22.7501 7.00277 22.7501 6.99601 22.75 6.98925V6C22.75 4.48122 21.5188 3.25 20 3.25H4C2.48122 3.25 1.25 4.48122 1.25 6V6.98585ZM21.25 8.36528V18C21.25 18.6904 20.6904 19.25 20 19.25H4C3.30964 19.25 2.75 18.6904 2.75 18V8.36532L10.5677 13.3331L10.5718 13.3357C10.9999 13.6039 11.4948 13.7461 12 13.7461C12.5051 13.7461 13.0001 13.6039 13.4282 13.3357L21.25 8.36528Z" fill="#0C0D0E"/>
</svg>
