<svg width="24" height="24" viewBox="0 0 24 24" fill="none" xmlns="http://www.w3.org/2000/svg">
<path fill-rule="evenodd" clip-rule="evenodd" d="M6.87348 4.87348C8.23311 3.51384 10.0772 2.75 12 2.75C13.9228 2.75 15.7669 3.51384 17.1265 4.87348C18.4862 6.23311 19.25 8.07718 19.25 10C19.25 12.2436 17.9913 14.6262 16.4012 16.7154C14.843 18.7627 13.0553 20.4139 12.1363 21.2093C12.0958 21.2356 12.0485 21.2498 12 21.2498C11.9515 21.2498 11.9042 21.2356 11.8637 21.2093C10.9447 20.4139 9.15703 18.7627 7.5988 16.7154C6.0087 14.6262 4.75 12.2436 4.75 10C4.75 8.07718 5.51384 6.23311 6.87348 4.87348ZM12 1.25C9.67936 1.25 7.45376 2.17187 5.81282 3.81282C4.17187 5.45376 3.25 7.67936 3.25 10C3.25 12.7494 4.76081 15.4633 6.4052 17.6239C8.06697 19.8072 9.95996 21.5474 10.9088 22.3667C10.9216 22.3777 10.9348 22.3883 10.9483 22.3984C11.2515 22.6265 11.6206 22.7498 12 22.7498C12.3794 22.7498 12.7485 22.6265 13.0518 22.3984C13.0652 22.3883 13.0784 22.3777 13.0912 22.3667C14.04 21.5474 15.933 19.8072 17.5948 17.6239C19.2392 15.4633 20.75 12.7494 20.75 10C20.75 7.67936 19.8281 5.45376 18.1872 3.81282C16.5462 2.17187 14.3206 1.25 12 1.25ZM9.75 10C9.75 8.75736 10.7574 7.75 12 7.75C13.2426 7.75 14.25 8.75736 14.25 10C14.25 11.2426 13.2426 12.25 12 12.25C10.7574 12.25 9.75 11.2426 9.75 10ZM12 6.25C9.92893 6.25 8.25 7.92893 8.25 10C8.25 12.0711 9.92893 13.75 12 13.75C14.0711 13.75 15.75 12.0711 15.75 10C15.75 7.92893 14.0711 6.25 12 6.25Z" fill="#0C0D0E"/>
</svg>
