<svg width="24" height="24" viewBox="0 0 24 24" fill="none" xmlns="http://www.w3.org/2000/svg">
<path d="M13 20H7.197C6.079 20 5.519 20 5.092 19.782C4.71569 19.5903 4.40974 19.2843 4.218 18.908C4 18.48 4 17.92 4 16.8V7.2C4 6.08 4 5.52 4.218 5.092C4.41 4.715 4.715 4.41 5.092 4.218C5.52 4 6.08 4 7.2 4H16.8C17.92 4 18.48 4 18.907 4.218C19.284 4.41 19.59 4.715 19.782 5.092C20 5.519 20 6.079 20 7.197V13M13 20C13.286 19.997 13.466 19.986 13.639 19.945C13.8443 19.895 14.037 19.815 14.217 19.705C14.419 19.581 14.592 19.409 14.937 19.063L19.063 14.938C19.409 14.592 19.581 14.418 19.705 14.217C19.815 14.0363 19.895 13.8433 19.945 13.638C19.985 13.466 19.997 13.286 20 13M13 20V14.6C13 14.04 13 13.76 13.109 13.546C13.2049 13.3578 13.3578 13.2049 13.546 13.109C13.76 13 14.04 13 14.6 13H20" stroke="black" stroke-width="1.5" stroke-linecap="round" stroke-linejoin="round"/>
</svg>
