<svg width="24" height="24" viewBox="0 0 24 24" fill="none" xmlns="http://www.w3.org/2000/svg">
<path fill-rule="evenodd" clip-rule="evenodd" d="M17.877 3.75024C17.5129 3.75024 17.1637 3.89487 16.9063 4.15231L4.89531 16.1633C4.74675 16.3118 4.63785 16.4954 4.57895 16.6971C4.57894 16.6971 4.57897 16.697 4.57895 16.6971L3.8687 19.1313L6.3029 18.421C6.50478 18.3622 6.68894 18.2533 6.83762 18.1047C6.83761 18.1047 6.83764 18.1047 6.83762 18.1047L18.8476 6.09367C19.1051 5.83623 19.2497 5.48705 19.2497 5.12298C19.2497 4.75891 19.1051 4.40975 18.8476 4.15231C18.5902 3.89487 18.241 3.75024 17.877 3.75024ZM15.8456 3.09165C16.3844 2.55291 17.1151 2.25024 17.877 2.25024C18.6389 2.25024 19.3696 2.55291 19.9083 3.09165C20.4471 3.63039 20.7497 4.36108 20.7497 5.12298C20.7497 5.88488 20.4471 6.61557 19.9083 7.15431L7.89833 19.1653C7.57131 19.4923 7.16706 19.7316 6.72305 19.861C6.72293 19.861 6.72318 19.8609 6.72305 19.861L3.85105 20.699C3.63593 20.7617 3.40782 20.7655 3.19075 20.7099C2.97368 20.6543 2.77555 20.5413 2.61709 20.3829C2.45864 20.2244 2.3457 20.0263 2.29008 19.8092C2.23447 19.5921 2.23823 19.3641 2.30098 19.149L3.139 16.2769C3.26855 15.8332 3.50788 15.4292 3.83479 15.1025L15.8456 3.09165ZM11.25 20C11.25 19.5858 11.5858 19.25 12 19.25H21C21.4142 19.25 21.75 19.5858 21.75 20C21.75 20.4142 21.4142 20.75 21 20.75H12C11.5858 20.75 11.25 20.4142 11.25 20Z" fill="#0C0D0E"/>
</svg>
