<svg width="24" height="24" viewBox="0 0 24 24" fill="none" xmlns="http://www.w3.org/2000/svg">
<path fill-rule="evenodd" clip-rule="evenodd" d="M2.75 7C2.75 6.30964 3.30964 5.75 4 5.75H20C20.6904 5.75 21.25 6.30964 21.25 7V17C21.25 17.6904 20.6904 18.25 20 18.25H4C3.30964 18.25 2.75 17.6904 2.75 17V7ZM4 4.25C2.48122 4.25 1.25 5.48122 1.25 7V17C1.25 18.5188 2.48122 19.75 4 19.75H20C21.5188 19.75 22.75 18.5188 22.75 17V7C22.75 5.48122 21.5188 4.25 20 4.25H4ZM10.7804 8.25177C10.514 8.24638 10.251 8.31202 10.0184 8.44196C9.78583 8.5719 9.59205 8.76145 9.457 8.9911C9.32195 9.22076 9.2505 9.48224 9.25 9.74866V14.2491C9.24989 14.5156 9.32082 14.7774 9.45548 15.0074C9.59025 15.2377 9.78397 15.4278 10.0167 15.5582C10.2494 15.6886 10.5127 15.7546 10.7794 15.7494C11.0461 15.7441 11.307 15.6676 11.5345 15.5282L15.1987 13.2781C15.4171 13.1439 15.5974 12.9559 15.7225 12.7322C15.8477 12.5085 15.9133 12.2564 15.9133 12.0001C15.9133 11.7437 15.8477 11.4917 15.7225 11.2679C15.5974 11.0442 15.4167 10.8561 15.1983 10.7219L11.534 8.47266C11.3069 8.33341 11.0467 8.25717 10.7804 8.25177ZM14.4133 12.0001L10.75 9.75147V14.2497L14.4133 12.0001Z" fill="#0C0D0E"/>
</svg>
