<svg width="25" height="24" viewBox="0 0 25 24" fill="none" xmlns="http://www.w3.org/2000/svg">
<path fill-rule="evenodd" clip-rule="evenodd" d="M4.08337 5C4.08337 4.30964 4.64302 3.75 5.33337 3.75H19.3334C20.0237 3.75 20.5834 4.30964 20.5834 5V19C20.5834 19.6904 20.0237 20.25 19.3334 20.25H5.33337C4.64302 20.25 4.08337 19.6904 4.08337 19V5ZM5.33337 2.25C3.81459 2.25 2.58337 3.48122 2.58337 5V19C2.58337 20.5188 3.81459 21.75 5.33337 21.75H19.3334C20.8522 21.75 22.0834 20.5188 22.0834 19V5C22.0834 3.48122 20.8522 2.25 19.3334 2.25H5.33337ZM13.0834 8C13.0834 7.58579 12.7476 7.25 12.3334 7.25C11.9192 7.25 11.5834 7.58579 11.5834 8V11.25H8.33337C7.91916 11.25 7.58337 11.5858 7.58337 12C7.58337 12.4142 7.91916 12.75 8.33337 12.75H11.5834V16C11.5834 16.4142 11.9192 16.75 12.3334 16.75C12.7476 16.75 13.0834 16.4142 13.0834 16V12.75H16.3334C16.7476 12.75 17.0834 12.4142 17.0834 12C17.0834 11.5858 16.7476 11.25 16.3334 11.25H13.0834V8Z" fill="#0C0D0E"/>
</svg>
