<svg width="24" height="24" viewBox="0 0 24 24" fill="none" xmlns="http://www.w3.org/2000/svg">
<path d="M11.525 2.29489C11.5688 2.20635 11.6365 2.13183 11.7204 2.07972C11.8044 2.02761 11.9012 2 12 2C12.0988 2 12.1956 2.02761 12.2795 2.07972C12.3634 2.13183 12.4311 2.20635 12.475 2.29489L14.785 6.97389C14.9369 7.28202 15.1615 7.54859 15.4394 7.75066C15.7172 7.95273 16.04 8.08425 16.38 8.13389L21.546 8.88989C21.6439 8.90408 21.7358 8.94537 21.8115 9.00909C21.8871 9.07282 21.9434 9.15644 21.974 9.2505C22.0046 9.34456 22.0082 9.4453 21.9846 9.54133C21.9609 9.63736 21.9108 9.72485 21.84 9.79389L18.104 13.4319C17.8574 13.6718 17.6729 13.9682 17.5664 14.2954C17.46 14.6226 17.4348 14.9708 17.493 15.3099L18.375 20.4499C18.3922 20.5477 18.3817 20.6485 18.3445 20.7406C18.3073 20.8327 18.2449 20.9125 18.1645 20.9709C18.0841 21.0293 17.9889 21.0639 17.8898 21.0708C17.7907 21.0777 17.6917 21.0566 17.604 21.0099L12.986 18.5819C12.6817 18.422 12.3432 18.3384 11.9995 18.3384C11.6558 18.3384 11.3172 18.422 11.013 18.5819L6.39597 21.0099C6.3083 21.0563 6.20937 21.0772 6.11042 21.0701C6.01147 21.0631 5.91649 21.0285 5.83626 20.9701C5.75604 20.9118 5.6938 20.8321 5.65662 20.7401C5.61945 20.6481 5.60883 20.5476 5.62597 20.4499L6.50697 15.3109C6.56534 14.9716 6.54021 14.6232 6.43375 14.2959C6.3273 13.9685 6.14272 13.6719 5.89597 13.4319L2.15997 9.79489C2.08856 9.72593 2.03796 9.63829 2.01393 9.54197C1.9899 9.44565 1.99341 9.34451 2.02405 9.25008C2.05469 9.15566 2.11124 9.07174 2.18725 9.00788C2.26326 8.94402 2.35567 8.90279 2.45397 8.88889L7.61897 8.13389C7.95928 8.08456 8.28248 7.95318 8.56071 7.75109C8.83893 7.549 9.06381 7.28227 9.21597 6.97389L11.525 2.29489Z" fill="#0C0D0E"/>
</svg>
