<svg width="24" height="24" viewBox="0 0 24 24" fill="none" xmlns="http://www.w3.org/2000/svg">
<path fill-rule="evenodd" clip-rule="evenodd" d="M7.75 8C7.75 5.65279 9.65279 3.75 12 3.75C14.3472 3.75 16.25 5.65279 16.25 8C16.25 10.3472 14.3472 12.25 12 12.25C9.65279 12.25 7.75 10.3472 7.75 8ZM15.1254 12.8272C16.7051 11.8024 17.75 10.0232 17.75 8C17.75 4.82436 15.1756 2.25 12 2.25C8.82436 2.25 6.25 4.82436 6.25 8C6.25 10.0232 7.29494 11.8024 8.87458 12.8272C7.73658 13.2624 6.69098 13.9347 5.81282 14.8128C4.17187 16.4538 3.25 18.6794 3.25 21C3.25 21.4142 3.58579 21.75 4 21.75C4.41421 21.75 4.75 21.4142 4.75 21C4.75 19.0772 5.51384 17.2331 6.87348 15.8735C8.23311 14.5138 10.0772 13.75 12 13.75C13.9228 13.75 15.7669 14.5138 17.1265 15.8735C18.4862 17.2331 19.25 19.0772 19.25 21C19.25 21.4142 19.5858 21.75 20 21.75C20.4142 21.75 20.75 21.4142 20.75 21C20.75 18.6794 19.8281 16.4538 18.1872 14.8128C17.309 13.9347 16.2634 13.2624 15.1254 12.8272Z" fill="#0C0D0E"/>
</svg>
